<?xml version="1.0" encoding="utf-8"?>
<!-- Generator: Adobe Illustrator 23.0.0, SVG Export Plug-In . SVG Version: 6.00 Build 0)  -->
<svg version="1.1" id="Layer_1" xmlns="http://www.w3.org/2000/svg" xmlns:xlink="http://www.w3.org/1999/xlink" x="0px" y="0px"
	 viewBox="0 0 531 552" style="enable-background:new 0 0 531 552;" xml:space="preserve">
<style type="text/css">
	.st0{fill-rule:evenodd;clip-rule:evenodd;fill:#1A1414;}
	.st1{fill:#1A1414;}
</style>
<g>
	<path class="st0" d="M265.5-0.5C118.9-0.5,0,126.3,0,282.8C0,407.9,76.1,514,181.6,551.5c13.3,2.6,18.1-6.1,18.1-13.6
		c0-6.8-0.2-29.1-0.4-52.7c-73.9,17.1-89.4-33.4-89.4-33.4c-12.1-32.7-29.5-41.4-29.5-41.4c-24.1-17.6,1.8-17.2,1.8-17.2
		c26.7,2,40.7,29.2,40.7,29.2c23.7,43.3,62.1,30.8,77.3,23.5c2.4-18.3,9.3-30.8,16.9-37.9c-59-7.2-121-31.4-121-140
		c0-30.9,10.4-56.2,27.4-76c-2.8-7.1-11.8-35.9,2.6-75c0,0,22.3-7.6,73,29c21.2-6.3,43.9-9.4,66.5-9.5c22.6,0.1,45.3,3.3,66.5,9.5
		c50.7-36.6,72.9-29,72.9-29c14.5,39,5.4,67.8,2.6,75c17,19.8,27.3,45.1,27.3,76c0,108.8-62.1,132.7-121.2,139.7
		c9.5,8.8,18,26,18,52.4c0,37.9-0.3,68.4-0.3,77.7c0,7.5,4.8,16.4,18.2,13.6C455,514,531,407.8,531,282.8
		C531,126.3,412.1-0.5,265.5-0.5z"/>
	<path class="st1" d="M100.6,406.2c-0.6,1.4-2.7,1.8-4.6,0.9c-1.9-0.9-3-2.8-2.4-4.3c0.6-1.4,2.6-1.9,4.6-0.9
		C100.1,402.8,101.2,404.8,100.6,406.2L100.6,406.2z M97.3,403.6"/>
	<path class="st1" d="M111.3,419c-1.3,1.3-3.7,0.7-5.4-1.3c-1.7-2-2.1-4.6-0.8-5.9c1.3-1.3,3.7-0.7,5.4,1.3
		C112.3,415.1,112.6,417.7,111.3,419L111.3,419z M108.8,416.1"/>
	<path class="st1" d="M121.8,435.3c-1.6,1.2-4.3,0.1-5.9-2.4c-1.6-2.5-1.6-5.5,0-6.8c1.6-1.2,4.3-0.1,5.9,2.4
		C123.4,431,123.4,434,121.8,435.3L121.8,435.3z M121.8,435.3"/>
	<path class="st1" d="M136.1,451c-1.5,1.7-4.6,1.3-6.8-1.1c-2.3-2.3-3-5.5-1.5-7.2c1.5-1.7,4.6-1.2,6.9,1.1
		C137,446.1,137.7,449.3,136.1,451L136.1,451z M136.1,451"/>
	<path class="st1" d="M155.9,460.2c-0.6,2.2-3.6,3.2-6.6,2.3c-3-1-5-3.6-4.4-5.8c0.6-2.2,3.6-3.3,6.7-2.3
		C154.6,455.4,156.5,457.9,155.9,460.2L155.9,460.2z M155.9,460.2"/>
	<path class="st1" d="M177.6,461.9c0.1,2.3-2.5,4.3-5.6,4.3c-3.2,0.1-5.7-1.8-5.8-4.1c0-2.4,2.5-4.3,5.7-4.3
		C175,457.7,177.6,459.6,177.6,461.9L177.6,461.9z M177.6,461.9"/>
	<path class="st1" d="M197.8,458.2c0.4,2.3-1.8,4.6-5,5.2c-3.1,0.6-5.9-0.8-6.3-3.1c-0.4-2.3,1.9-4.7,4.9-5.3
		C194.6,454.5,197.4,455.9,197.8,458.2L197.8,458.2z M197.8,458.2"/>
</g>
</svg>
